<?xml version="1.0" encoding="UTF-8" standalone="no"?><svg xmlns="http://www.w3.org/2000/svg" xmlns:xlink="http://www.w3.org/1999/xlink" fill="#000000" height="213.8" preserveAspectRatio="xMidYMid meet" version="1" viewBox="233.3 392.7 290.7 213.8" width="290.7" zoomAndPan="magnify"><g><g fill="#000000" id="change1_1"><path d="M257.79938,392.671Q257.94745,392.671,258.04077,392.74426L258.09686,392.74576L266.3672,397.67996Q266.5271,397.7085,266.7143,397.7085Q268.28778,397.7085,271.78906,395.69275Q272.021,395.64523,272.2426,395.64523Q272.87433,395.64523,273.4228,396.0312Q276.78143,399.64334,275.96014,404.67215Q276.578,405.7123,277.27045,405.7123Q277.32697,405.7123,277.38397,405.70538Q277.47906,405.7129,277.57733,405.7129Q278.82513,405.7129,280.57855,404.502Q280.0368,400.57672,281.3291,400.0552Q281.539,400.0392,281.76184,400.0392Q285.02502,400.0392,291.05243,403.4693L298.91235,402.56958Q299.94827,402.1709,300.0219,397.44598Q300.4901,396.7136,302.46683,396.38986Q313.7257,403.96274,316.96326,403.96274Q317.2311,403.96274,317.44406,403.9109Q321.38077,403.51938,322.61346,402.79044Q320.6001,399.21112,325.54642,398.55887Q356.77808,395.48532,374.57886,395.48532Q380.83716,395.48532,385.43533,395.86523Q394.31265,397.17432,417.2248,407.4469L417.2248,407.4479Q417.8154,407.0097,418.46906,406.52136Q419.36124,405.92468,420.67328,405.79636L420.9645,405.80798Q421.9723,405.82257,425.2006,406.89423Q427.36963,407.66583,433.93192,410.7524Q440.5352,412.70004,441.68652,413.28732L459.73825,424.61456Q464.8667,428.56296,472.16794,439.59634L472.1713,439.59735Q484.9264,447.5848,494.59454,454.39322L513.6499,465.4037L520.9374,471.11435Q524.06,474.67014,522.1325,476.39938Q521.1474,477.05573,518.9057,477.05573Q517.40186,477.05573,515.3325,476.76035Q514.57745,476.80246,514.0278,477.52945Q513.69214,478.04233,517.9117,481.6505Q518.39996,482.18253,517.4041,483.05206Q516.7587,483.59134,515.4377,483.74582Q515.33795,483.74576,515.2393,483.74576Q507.66193,483.74576,506.17654,484.0836Q504.25873,484.37683,502.83713,484.6934L502.84015,484.6944Q504.06305,489.1918,504.7132,494.007Q504.82266,505.5002,502.24493,509.4039L504.20782,518.79645Q503.44342,524.144,502.53876,527.9819Q501.3825,529.71967,499.39563,529.9554Q498.29828,533.2884,497.0129,533.2884Q496.95776,533.2884,496.90225,533.28217Q496.83667,533.2973,496.75317,533.2973Q495.87387,533.2973,493.0056,531.6274Q492.87173,531.50543,492.7445,531.37274L492.74136,531.3737Q492.5089,536.8682,490.6364,542.6165Q489.49567,545.9604,488.45728,547.9273Q480.60114,561.2253,479.90247,563.6622L478.08237,566.62067Q477.84244,566.5308,477.5975,566.5308Q475.97644,566.5308,474.13562,570.46405L469.38913,584.57306Q467.36093,588.40155,465.426,592.6198Q462.07196,600.1359,460.73447,603.7747Q460.22745,604.9118,459.6901,605.5618Q459.2956,606.18634,458.29935,606.42596L453.43716,605.70087Q452.3718,604.44464,451.14618,603.5583L447.0799,601.3094Q446.11942,600.6003,445.31732,596.8886Q441.82874,597.3023,439.5272,597.3023Q436.38815,597.3023,435.4573,596.53265L435.27444,596.3287L436.14188,594.29877Q434.81418,593.12396,433.79248,590.62787Q433.3718,589.22064,433.78162,587.91156Q430.90475,584.59283,430.9842,584.2995Q430.75342,582.7497,431.57272,581.77936Q435.4992,580.6607,436.43936,578.83356L437.9531,573.25116Q437.97177,572.7338,437.2261,572.56Q435.8276,572.61053,434.81412,572.61053Q432.7228,572.61053,432.27078,572.39545Q430.1368,571.2553,430.95004,570.012Q431.43112,568.8897,437.5083,563.3857L441.86496,557.69037Q442.4304,556.66144,444.63937,547.40094Q445.26175,543.5096,444.1737,539.6838Q443.5362,537.1214,440.87268,532.7203Q440.4442,531.54193,440.29007,530.5207L440.28644,530.52167L440.2524,530.5273Q440.25616,530.4272,440.25952,530.32745L440.26318,530.3284Q440.23535,530.1086,440.2205,529.89716Q440.24695,529.79803,440.2731,529.6984L440.27676,529.6994Q440.37283,525.13007,439.59677,521.39166Q438.75085,517.31696,436.86874,514.2282L434.72757,511.38617Q432.3274,508.79056,428.891,507.18103Q425.4546,505.5715,420.98203,504.9481Q419.55472,504.9644,418.24777,505.19983Q411.66794,506.73303,408.27713,512.3215L405.19113,517.2353Q404.6388,519.0535,404.8805,523.2607Q404.839,523.71,403.05008,524.87946Q402.8132,527.5324,402.24158,528.2227Q398.54086,530.6468,396.0392,533.8725L384.65,541.92303Q383.3458,542.288,382.0539,542.288Q381.85422,542.288,381.65482,542.27924Q379.63297,542.10236,378.652,540.21075Q377.516,537.5822,377.29688,533.6586Q373.55603,529.93146,373.3148,529.0234Q372.57126,528.1917,371.38525,521.9152Q371.02847,519.9244,370.63385,517.32416L370.63818,517.32513L368.71252,514.28937Q347.49728,495.78455,347.97803,494.1578L347.97345,494.1588Q347.46783,494.36758,346.9956,494.36758Q345.26242,494.36758,343.97852,491.5418Q341.57886,487.27927,340.61966,484.14957L336.90906,461.2698Q336.33737,458.80374,334.85907,458.1559Q334.76334,458.15576,334.66782,458.15576Q319.11472,458.15576,308.05988,462.21902Q302.0764,464.25894,296.38696,467.3188Q290.6975,470.3787,285.3023,474.45856L279.98053,478.79343Q266.54938,474.49374,260.12592,471.4824Q252.3537,465.81543,248.09619,461.18643Q243.37994,456.1462,240.34332,450.49908L237.72662,444.70026Q233.33301,432.79913,235.65784,418.4705Q240.55243,415.2187,248.60773,400.79645Q256.24023,392.671,257.79938,392.671 Z"/></g></g></svg>