<?xml version="1.0" encoding="UTF-8" standalone="no"?><svg xmlns="http://www.w3.org/2000/svg" xmlns:xlink="http://www.w3.org/1999/xlink" fill="#000000" height="469.7" preserveAspectRatio="xMidYMid meet" version="1" viewBox="-3.4 -4.2 976.8 469.7" width="976.8" zoomAndPan="magnify"><g id="change1_1"><path d="M923.5,72.1C895.4,25.4,839.4-4.2,784.9,0.5c-61.9,5.3-120.5,38.8-181.2,47.9c-52.9,7.9-106.6,4-159.6-0.9 c-96.5-9-199.6-23.5-290.2,20.5C79.9,104,23,175,5,255.5c-7.7,34.6-8.4,74.7,10.9,105.9c22.2,36,63.4,42.9,102.4,37.5 c47.6-6.5,91.9-23,140.7-22.4c51.5,0.6,102,13.3,151.1,27.5c89.8,26,182.1,61.5,277.3,50.7c80.7-9.2,155.5-53.6,204.8-117.8 C948.1,264,973.4,155,923.5,72.1z" fill="#c1ff72"/></g></svg>